<svg width="1440" height="889" viewBox="0 0 1440 889" fill="none" xmlns="http://www.w3.org/2000/svg">
<g clip-path="url(#clip0_1_3406)">
<path d="M148.28 150.431H222.714C222.288 153.913 220.741 170.013 231.798 184.903C241.825 198.408 255.691 202.14 259.478 203.028V271.103C252.793 271.032 205.186 269.717 172.778 229.825C145.721 196.507 147.623 158.889 148.263 150.431H148.28Z" stroke="white" stroke-opacity="0.1" stroke-miterlimit="10"/>
<path d="M-177.614 145.135L-103.18 143.323C-97.047 151.195 -86.2561 162.905 -69.5987 172.216C-44.5327 186.218 -20.6044 186.734 -9.68908 186.272C18.6658 191.034 33.0477 204.841 38.4165 210.776C59.6248 234.213 64.3358 272.276 61.6159 273.377C61.5981 273.377 61.5803 273.377 61.5625 273.377C58.8426 273.377 -13.3334 271.103 -13.3334 271.103C-17.7422 263.107 -25.422 251.681 -38.2928 242.512C-59.5901 227.355 -72.9231 234.16 -106.825 223.001C-124.78 217.084 -160.192 205.374 -173.098 175.361C-178.094 163.74 -178.254 152.581 -177.632 145.117L-177.614 145.135Z" stroke="white" stroke-opacity="0.1" stroke-miterlimit="10"/>
<path d="M615.327 -10.1875H690.827V60.5882H755.59V121.378C755.59 121.378 617.602 121.84 617.602 121.378C617.602 120.916 615.327 -10.1875 615.327 -10.1875Z" stroke="white" stroke-opacity="0.1" stroke-miterlimit="10"/>
<path d="M1558.04 104.603H1382.85V164.486H1558.04V104.603Z" stroke="white" stroke-opacity="0.1" stroke-miterlimit="10"/>
<path d="M147.587 667.824C189.697 667.824 223.834 627.608 223.834 577.999C223.834 528.39 189.697 488.174 147.587 488.174C105.477 488.174 71.3401 528.39 71.3401 577.999C71.3401 627.608 105.477 667.824 147.587 667.824Z" stroke="white" stroke-opacity="0.1" stroke-miterlimit="10"/>
<path d="M267.193 325.548V383.619C269.415 383.37 290.179 381.433 304.863 397.461C316.827 410.522 316.365 426.337 316.205 429.446C340.418 430.122 364.613 430.815 388.826 431.49C388.506 424.524 385.857 381.718 349.111 350.959C314.41 321.906 274.624 324.855 267.175 325.548H267.193Z" stroke="white" stroke-opacity="0.1" stroke-miterlimit="10"/>
<path d="M612.145 558.293H439.669V622.725H612.145V558.293Z" stroke="white" stroke-opacity="0.1" stroke-miterlimit="10"/>
<path d="M368.862 805.555H504.574C500.112 768.523 467.615 741.674 432.398 743.859C400.15 745.867 372.773 771.793 368.862 805.555Z" stroke="white" stroke-opacity="0.1" stroke-miterlimit="10"/>
<path d="M433.767 682.146C368.666 683.976 329.218 733.482 324.383 739.772C287.21 788.034 293.486 841.68 294.872 851.826C482.726 852.306 576.697 852.306 576.732 851.826C580.537 840.045 584.27 822.826 581.728 802.836C573.692 739.879 507.241 680.084 433.767 682.164V682.146Z" stroke="white" stroke-opacity="0.1" stroke-miterlimit="10"/>
<path d="M800.051 558.293H723.804V852.182H800.051V558.293Z" stroke="white" stroke-opacity="0.1" stroke-miterlimit="10"/>
<path d="M876.316 558.293H956.208C936.599 603.481 940.35 651.369 967.105 680.796C979.3 694.212 994.056 701.355 1006.14 705.246C1007.05 725.877 1007.96 746.507 1008.86 767.155C996.42 767.901 951.106 769.092 913.542 737.054C890.556 717.454 881.241 694.585 876.316 682.111C854.983 627.967 869.756 577.111 876.316 558.311V558.293Z" stroke="white" stroke-opacity="0.1" stroke-miterlimit="10"/>
<path d="M1446.9 834.217C1470.35 834.217 1489.37 815.211 1489.37 791.766C1489.37 768.321 1470.35 749.314 1446.9 749.314C1423.44 749.314 1404.43 768.321 1404.43 791.766C1404.43 815.211 1423.44 834.217 1446.9 834.217Z" fill="#D9F19E"/>
<path d="M1288.15 410.984C1288.02 414.627 1287.12 430.548 1274.23 443.644C1260.15 457.967 1242.33 458.18 1239.13 458.162V518.649C1255.58 518.56 1295.42 515.859 1323.26 487.197C1350.97 458.677 1360.04 411.411 1359.01 410.966C1358.99 410.966 1358.95 410.966 1358.95 410.966C1355.93 412.175 1288.15 410.966 1288.15 410.966V410.984Z" stroke="white" stroke-opacity="0.1" stroke-miterlimit="10"/>
<path d="M1077.54 711.039H1150.76C1156.49 720.776 1165.91 733.037 1181.02 739.47C1192.15 744.214 1200.75 743.397 1210.07 743.699C1215.93 743.895 1262.3 745.938 1288.75 772.734C1311.2 795.479 1317.85 834.59 1313.67 836.811C1313.64 836.811 1313.62 836.847 1313.57 836.864C1309.34 837.468 1242.76 841.698 1242.76 841.698C1239.86 833.239 1234.39 821.44 1223.4 812.058C1206.81 797.914 1192.49 801.93 1157.43 791.765C1133.22 784.746 1113.75 779.096 1098.73 763.05C1082.76 746.009 1078.69 724.526 1077.56 711.021L1077.54 711.039Z" stroke="white" stroke-opacity="0.1" stroke-miterlimit="10"/>
<path d="M1239.12 747.626C1239.12 747.626 1269.52 841.307 1273.68 839.69C1277.85 838.055 1313.55 836.846 1313.55 836.846C1313.78 829.454 1313.62 804.453 1295.81 781.086C1275.04 753.828 1245.41 748.603 1239.1 747.626H1239.12Z" fill="#D9F19E"/>
<path d="M1239.12 560.55C1238.05 563.73 1236.24 616.346 1236.24 616.346C1238.42 616.008 1257.57 613.343 1272.56 627.683C1288.16 642.627 1285.55 662.937 1285.27 664.892H1359.08C1358.6 657.926 1354.65 612.223 1314.78 582.317C1282.85 558.364 1248.31 559.857 1239.13 560.532L1239.12 560.55Z" stroke="white" stroke-opacity="0.1" stroke-miterlimit="10"/>
<path d="M1279.81 564.903C1278.92 566.911 1248.95 616.434 1248.95 616.434C1251.36 616.612 1267.28 618.087 1278.01 632.249C1288.89 646.607 1285.76 662.582 1285.28 664.909H1359.1C1358.85 655.794 1356.91 628.322 1336.57 602.308C1315.68 575.564 1288.54 567.213 1279.81 564.921V564.903Z" fill="#D9F19E"/>
</g>
<defs>
<clipPath id="clip0_1_3406">
<rect width="2212" height="1129" fill="white" transform="translate(-386 -240)"/>
</clipPath>
</defs>
</svg>
