<svg width="97" height="98" viewBox="0 0 97 98" fill="none" xmlns="http://www.w3.org/2000/svg">
<g clip-path="url(#clip0_1_3507)">
<path d="M53.72 0C65.87 0 78.01 0 90.16 0C94.62 0 96.54 1.91 96.54 6.36C96.54 27.34 96.54 48.33 96.54 69.31C96.54 73.31 94.5 75.37 90.54 75.38C89.44 75.38 88.33 75.43 87.23 75.36C86.42 75.31 86.17 75.54 86.19 76.38C86.25 78.54 86.22 80.71 86.21 82.87C86.19 86.24 84.05 88.42 80.67 88.45C76.87 88.48 73.07 88.45 69.27 88.45C67.8966 88.45 67.21 89.1567 67.21 90.57C67.21 92.25 67.19 93.93 67.21 95.61C67.23 96.72 66.7 97.25 65.61 97.25C57.7 97.25 49.8 97.25 41.89 97.25C40.72 97.25 40.24 96.66 40.26 95.5C40.3 93.56 40.21 91.61 40.29 89.67C40.33 88.67 40.02 88.42 39.03 88.42C28.12 88.46 17.21 88.45 6.29998 88.44C3.27998 88.44 1.31998 86.93 0.719976 84.2C0.609976 83.69 0.599976 83.15 0.599976 82.62C0.619976 61.38 0.619976 40.13 0.619976 18.89C0.619976 15.26 2.74998 13.13 6.36998 13.12C7.60998 13.12 8.84998 13.08 10.08 13.13C10.78 13.16 10.99 12.93 10.97 12.24C10.93 10.25 10.95 8.26 10.96 6.28C10.96 1.93 12.9 0 17.28 0C29.43 0 41.58 0 53.72 0ZM66.29 72.51L66.31 72.78C66.69 72.78 67.07 72.78 67.45 72.78C75.09 72.78 82.74 72.78 90.38 72.78C93.1 72.78 93.9 71.97 93.9 69.21C93.9 52.99 93.89 36.78 93.93 20.56C93.93 19.4 93.66 19.13 92.5 19.13C76.95 19.17 61.4 19.14 45.84 19.19C44.24 19.19 43.07 18.73 42.02 17.53C40.65 15.97 39.15 14.53 37.73 13.02C37.34 12.6 36.93 12.41 36.35 12.41C32.77 12.43 29.19 12.43 25.61 12.41C24.96 12.41 24.65 12.53 24.7 13.28C24.77 14.29 24.73 15.31 24.71 16.33C24.69 18.27 23.82 19.14 21.86 19.16C19.52 19.18 17.17 19.22 14.84 19.14C13.8 19.1 13.55 19.39 13.55 20.43C13.59 36.78 13.57 53.13 13.58 69.48C13.58 71.88 14.47 72.78 16.83 72.78C24.61 72.78 32.38 72.78 40.16 72.78C40.49 72.78 40.82 72.78 41.21 72.78C41.08 72.36 40.79 72.34 40.57 72.26C38.47 71.49 37.87 69.92 38.92 67.98C39.34 67.21 39.78 66.44 40.21 65.67C44.06 58.73 47.91 51.78 51.78 44.85C52.82 42.99 54.58 42.88 55.57 44.64C59.97 52.49 64.34 60.35 68.69 68.23C69.6 69.88 68.9 71.55 67.15 72.2C66.87 72.31 66.58 72.41 66.29 72.51ZM53.89 2.61C41.74 2.61 29.6 2.61 17.45 2.61C17.05 2.61 16.65 2.59 16.26 2.62C14.53 2.75 13.6 3.7 13.59 5.44C13.57 8.84 13.61 12.24 13.56 15.64C13.55 16.44 13.84 16.59 14.55 16.56C15.87 16.51 17.2 16.56 18.52 16.54C19.66 16.53 21.18 16.92 21.84 16.34C22.61 15.66 22.01 14.1 22.1 12.93C22.1 12.84 22.1 12.75 22.1 12.67C22.14 10.78 22.99 9.88 24.84 9.87C28.86 9.85 32.88 9.87 36.9 9.85C37.91 9.85 38.66 10.22 39.34 10.94C40.91 12.62 42.53 14.24 44.1 15.92C44.53 16.38 44.97 16.55 45.59 16.55C61.36 16.54 77.12 16.53 92.89 16.55C93.72 16.55 93.92 16.33 93.91 15.52C93.86 12.43 93.89 9.34 93.89 6.24C93.89 3.33 93.13 2.59 90.18 2.59C78.08 2.59 65.98 2.59 53.88 2.59L53.89 2.61ZM3.24998 50.72C3.24998 61.24 3.24998 71.75 3.24998 82.27C3.24998 85.11 3.99998 85.85 6.87998 85.85C16.78 85.85 26.67 85.85 36.57 85.85C37.75 85.85 39.27 86.35 40.03 85.64C40.8 84.93 40.2 83.39 40.28 82.22C40.31 81.87 40.28 81.51 40.3 81.16C40.34 80.19 40.83 79.52 41.62 79C42.38 78.51 43.23 78.63 44.06 78.59C44.37 78.58 44.76 78.76 44.94 78.26C45.41 76.94 44.35 75.39 42.94 75.39C34.28 75.39 25.62 75.39 16.96 75.39C12.99 75.39 10.95 73.33 10.95 69.33C10.95 56.78 10.95 44.23 10.95 31.68C10.95 26.78 10.91 21.87 10.98 16.97C10.99 15.89 10.66 15.61 9.65998 15.7C8.69998 15.78 7.71998 15.72 6.74998 15.72C4.07998 15.72 3.25998 16.54 3.25998 19.17C3.25998 29.69 3.25998 40.2 3.25998 50.72H3.24998ZM52.45 49.43C52.21 49.63 52.09 49.68 52.04 49.77C48.48 56.16 44.94 62.56 41.36 68.94C40.94 69.69 41.43 69.69 41.88 69.89C45.31 71.42 47.36 73.96 47.52 77.81C47.55 78.48 47.79 78.6 48.38 78.6C51.96 78.58 55.53 78.58 59.11 78.6C59.71 78.6 59.94 78.47 59.97 77.81C60.17 74.04 62.09 71.45 65.56 70.03C66.34 69.71 66.43 69.48 66.01 68.74C63.92 65.06 61.89 61.35 59.84 57.65C58.33 54.93 56.82 52.22 55.31 49.5C55.03 51.22 55.06 52.87 55.02 54.52C55 55.25 55.14 55.73 55.87 56.1C56.86 56.59 57.43 57.5 57.67 58.59C58.1 60.59 57 62.6 55.11 63.26C53.16 63.94 51.03 63.12 50.16 61.33C49.22 59.42 49.79 57.25 51.55 56.09C51.93 55.84 52.47 55.76 52.46 55.1C52.43 53.27 52.46 51.43 52.46 49.43H52.45ZM53.72 94.65C56.98 94.65 60.25 94.63 63.51 94.67C64.33 94.68 64.68 94.52 64.66 93.6C64.61 89.81 64.61 86.01 64.66 82.22C64.66 81.38 64.41 81.19 63.61 81.2C57.04 81.23 50.46 81.23 43.89 81.2C43.13 81.2 42.94 81.43 42.94 82.16C42.94 85.95 42.92 89.75 42.83 93.54C42.81 94.54 43.19 94.69 44.05 94.68C47.27 94.64 50.49 94.66 53.71 94.66L53.72 94.65ZM73.38 75.37C70.42 75.37 67.47 75.37 64.51 75.37C63.04 75.37 62.59 75.93 62.54 77.74C62.5 79.27 63.66 78.51 64.25 78.55C66.12 78.69 67.16 79.66 67.2 81.55C67.22 82.65 67.25 83.76 67.2 84.86C67.16 85.61 67.4 85.85 68.16 85.85C72.35 85.82 76.54 85.85 80.73 85.82C82.62 85.81 83.55 84.83 83.57 82.94C83.59 80.78 83.54 78.62 83.59 76.46C83.61 75.61 83.39 75.34 82.51 75.36C79.47 75.42 76.42 75.38 73.38 75.38V75.37ZM53.75 60.88C54.55 60.85 55.11 60.39 55.17 59.54C55.24 58.58 54.62 58.01 53.73 58.01C52.92 58.01 52.31 58.54 52.3 59.44C52.29 60.32 52.75 60.83 53.74 60.89L53.75 60.88Z" fill="#D9F19E"/>
<path d="M48.1799 36.4162C39.9982 38.806 34.4771 43.9255 31.7165 52.0046C31.4664 52.7246 31.6465 52.8846 32.3866 52.9246C34.287 53.0245 35.1072 53.8945 35.1372 55.7543C35.1672 57.5241 35.1772 59.2839 35.1372 61.0537C35.0972 62.8235 34.167 63.7434 32.4066 63.7734C30.5963 63.8034 28.7859 63.8034 26.9755 63.7734C25.2451 63.7434 24.3049 62.7935 24.2749 61.0337C24.2349 59.3139 24.2449 57.5841 24.2749 55.8643C24.3049 53.8545 25.2051 52.8446 27.1955 52.9545C28.5258 53.0245 28.8959 52.5046 29.266 51.3147C31.3164 44.7554 35.4173 39.7859 41.3985 36.3863C41.5785 36.2863 41.7686 36.1763 41.9586 36.0763C41.8186 35.5863 41.4485 35.7663 41.1885 35.7663C37.7878 35.7563 34.387 35.7663 30.9863 35.7463C30.3362 35.7463 29.9961 35.9263 29.6761 36.5462C28.5458 38.706 25.9953 39.6759 23.6848 38.946C21.3643 38.2161 19.904 36.0763 20.1041 33.6865C20.3041 31.2768 21.9945 29.427 24.3049 29.077C26.8655 28.687 29.0759 29.9369 29.9561 32.3967C30.1762 33.0166 30.4462 33.2066 31.0764 33.2066C36.5075 33.1866 41.9486 33.1766 47.3798 33.2066C48.1799 33.2066 48.3099 32.9066 48.32 32.1967C48.37 29.297 49.0701 28.6271 51.9407 28.6271C53.351 28.6271 54.7713 28.6071 56.1816 28.6271C58.242 28.657 59.2722 29.597 59.1722 31.6167C59.1122 32.8766 59.4223 33.2466 60.7425 33.2266C65.8636 33.1366 70.9947 33.1766 76.1157 33.2066C76.8859 33.2066 77.346 33.1466 77.6461 32.2267C78.3662 29.9769 80.6767 28.757 83.1472 29.077C85.4877 29.387 87.2081 31.1468 87.5181 33.5565C87.7982 35.7563 86.4779 38.0161 84.4775 38.776C82.067 39.6959 79.5365 39.056 78.2862 36.9762C77.6461 35.9163 76.9259 35.7363 75.8457 35.7563C72.445 35.8063 69.0543 35.7763 65.6636 35.7763C65.5936 36.3263 66.0236 36.2863 66.2437 36.4162C72.415 39.9859 76.5658 45.1554 78.5062 52.0246C78.7263 52.8146 79.0764 52.9446 79.7965 52.9446C82.7771 52.9646 83.3773 53.5745 83.3773 56.5142C83.3773 58.064 83.3973 59.6039 83.3773 61.1537C83.3473 62.8335 82.4271 63.7634 80.7367 63.7934C78.9263 63.8334 77.116 63.8234 75.3056 63.7934C73.5952 63.7634 72.625 62.9035 72.555 61.2337C72.475 59.3339 72.485 57.4341 72.555 55.5343C72.615 53.9145 73.4852 53.0345 75.1555 52.9646C76.0357 52.9246 76.0857 52.6046 75.8457 51.9347C73.1151 44.2154 67.924 39.056 60.0424 36.6562C59.4923 36.4862 59.3122 36.4962 59.2122 37.1562C58.9522 38.796 58.102 39.4759 56.4016 39.5159C54.9013 39.5459 53.401 39.5159 51.9007 39.5159C49.3502 39.5159 48.68 38.966 48.2099 36.4462L48.1799 36.4162ZM32.5667 58.434C32.5267 56.4809 31.5231 55.5043 29.556 55.5043C27.6957 55.5043 26.7755 56.4442 26.7955 58.324C26.8155 60.3038 27.839 61.2704 29.8661 61.2237C31.7065 61.177 32.6067 60.2471 32.5667 58.434ZM53.8211 36.9062C54.7013 36.9062 55.8015 37.2362 56.4016 36.8262C57.1818 36.3063 56.4817 35.1264 56.6117 34.2465C56.6117 34.2065 56.6217 34.1565 56.6217 34.1165C56.6417 32.19 55.6782 31.2268 53.7311 31.2268C51.784 31.2268 50.8338 32.2133 50.8805 34.1865C50.9272 36.1596 51.9074 37.0695 53.8211 36.9162V36.9062ZM77.9461 55.5043C76.0057 55.5043 75.0422 56.4809 75.0555 58.434C75.0689 60.3471 76.0357 61.277 77.9561 61.2237C79.8765 61.1704 80.8201 60.1938 80.7867 58.294C80.7534 56.4342 79.8065 55.5043 77.9461 55.5043ZM84.8376 34.1065C84.8576 32.6966 83.7773 31.5667 82.387 31.5468C80.9868 31.5168 79.8765 32.5966 79.8465 34.0065C79.8265 35.4364 80.8767 36.5262 82.307 36.5462C83.8074 36.5662 84.8176 35.6063 84.8376 34.1165V34.1065ZM27.6256 34.1065C27.6456 32.6566 26.6154 31.5667 25.1951 31.5468C23.8048 31.5268 22.6646 32.6166 22.6346 34.0065C22.6046 35.3964 23.7148 36.5262 25.1151 36.5462C26.6354 36.5662 27.6056 35.6263 27.6256 34.1065Z" fill="#D9F19E"/>
<path d="M73.2451 9.54903C73.2551 11.5988 71.6148 13.2287 69.5543 13.2187C67.5739 13.1987 65.9436 11.5688 65.9336 9.59903C65.9236 7.55924 67.5839 5.9294 69.6444 5.9494C71.6548 5.9694 73.2351 7.55924 73.2451 9.55903V9.54903ZM69.8744 8.55913C68.9442 8.53914 68.6041 8.96909 68.5741 9.51903C68.5341 10.149 68.9142 10.6489 69.5943 10.6489C70.2445 10.6489 70.6346 10.209 70.6045 9.52903C70.5845 8.9091 70.2345 8.56913 69.8744 8.55913Z" fill="#D9F19E"/>
<path d="M87.268 5.93945C89.3084 5.93945 91.0088 7.63928 90.9588 9.63907C90.9088 11.5989 89.2384 13.2187 87.268 13.2187C85.2376 13.2187 83.5572 11.5189 83.5973 9.50909C83.6373 7.51929 85.2676 5.93945 87.268 5.94945V5.93945ZM87.228 8.54918C86.6679 8.56918 86.2878 8.88915 86.2378 9.49909C86.1878 10.179 86.5679 10.629 87.228 10.649C87.8881 10.669 88.3082 10.209 88.2982 9.55908C88.2882 8.97914 87.9282 8.58918 87.228 8.54918Z" fill="#D9F19E"/>
<path d="M82.087 9.529C82.107 11.5188 80.5166 13.1586 78.5362 13.2086C76.4758 13.2586 74.8055 11.6588 74.7955 9.59899C74.7855 7.5792 76.3158 5.97936 78.3262 5.92937C80.4066 5.87938 82.067 7.46921 82.087 9.519V9.529ZM79.4764 9.58899C79.3764 9.03905 79.1664 8.5791 78.5062 8.5591C77.8061 8.5391 77.456 8.90906 77.436 9.58899C77.416 10.2189 77.7861 10.6089 78.3662 10.6489C79.0363 10.6889 79.3664 10.2289 79.4764 9.58899Z" fill="#D9F19E"/>
</g>
<defs>
<clipPath id="clip0_1_3507">
<rect width="95.94" height="97.25" fill="white" transform="translate(0.599976)"/>
</clipPath>
</defs>
</svg>
