<svg width="105" height="100" viewBox="0 0 105 100" fill="none" xmlns="http://www.w3.org/2000/svg">
<g clip-path="url(#clip0_1_3444)">
<path d="M93.12 51.85V31.51H4.28998C4.26998 31.92 4.22998 32.35 4.22998 32.78C4.22998 44.64 4.18998 56.49 4.26998 68.35C4.27998 69.84 4.71998 71.41 5.33998 72.78C6.27998 74.83 8.01998 75.85 10.39 75.81C13.89 75.75 17.39 75.79 20.88 75.79C21.2 75.79 21.52 75.78 21.83 75.79C23.07 75.88 23.92 76.74 23.92 77.87C23.92 79.02 23.1 79.87 21.81 79.88C17.54 79.9 13.27 79.98 8.99998 79.84C5.06998 79.71 1.40998 76.15 0.48998 71.8C0.25998 70.7 0.11998 69.55 0.11998 68.43C0.0999805 49.45 0.0999805 30.46 0.11998 11.47C0.11998 7 1.70998 3.26 5.81998 1.06C7.00998 0.430001 8.49998 0.0500007 9.84998 0.0500007C35.74 -0.0099993 61.64 6.95232e-07 87.53 0.0100007C92.37 0.0100007 96.5 3.97 97.14 9.1C97.27 10.18 97.34 11.27 97.34 12.36C97.35 26.12 97.36 39.89 97.34 53.65C97.34 54.62 97.58 55.34 98.29 56.05C100.18 57.93 100.25 60.48 98.5 62.54C98.05 63.07 97.88 63.47 98.27 64.08C98.49 64.42 98.66 64.81 98.76 65.2C99.06 66.42 99.67 67.01 101.06 67.12C103.14 67.3 104.67 69.2 104.78 71.36C104.85 72.76 104.86 74.18 104.78 75.58C104.65 77.91 102.9 79.75 100.62 79.85C99.67 79.89 99.21 80.21 99.01 81.07C98.94 81.38 98.83 81.69 98.66 81.95C97.94 83.02 98.05 83.86 98.94 84.91C100.25 86.45 99.98 88.97 98.57 90.56C97.66 91.57 96.7 92.54 95.69 93.46C93.87 95.11 91.36 95.16 89.49 93.55C88.88 93.02 88.41 92.83 87.72 93.3C87.42 93.5 87.07 93.65 86.73 93.73C85.53 94.03 84.9 94.57 84.82 96.01C84.72 98.06 82.78 99.65 80.61 99.76C79.21 99.83 77.79 99.83 76.39 99.76C74.06 99.64 72.25 97.98 72.07 95.64C71.99 94.58 71.56 94.1 70.62 93.86C70.23 93.76 69.82 93.63 69.48 93.41C68.69 92.88 68.12 92.96 67.36 93.63C65.58 95.18 63.02 95.06 61.28 93.45C60.28 92.53 59.31 91.56 58.4 90.55C56.78 88.75 56.71 86.29 58.33 84.49C58.99 83.76 58.76 83.26 58.57 82.47C58.04 80.3 56.84 79.72 54.62 79.83C50.09 80.05 45.54 79.9 41 79.9C39.05 79.9 38.09 79.2 38.13 77.81C38.16 76.5 39.15 75.78 40.96 75.78C44.14 75.78 47.32 75.78 50.5 75.78C50.99 75.78 51.48 75.78 52.15 75.78C52.15 74.45 52.15 73.23 52.15 72.02C52.17 69.01 53.72 67.32 56.69 66.93C57.1 66.88 57.46 66.39 57.82 66.08C57.91 66 57.89 65.82 57.96 65.7C58.67 64.32 59.15 63.16 57.81 61.62C56.49 60.1 56.93 57.91 58.32 56.38C59.26 55.34 60.27 54.34 61.31 53.4C63.04 51.83 65.52 51.72 67.28 53.24C68.03 53.89 68.61 54.03 69.39 53.49C69.54 53.39 69.72 53.32 69.89 53.28C71.21 52.95 71.91 52.29 72.11 50.76C72.4 48.53 74.28 47.17 76.55 47.12C77.78 47.09 79 47.09 80.23 47.12C82.77 47.18 84.68 48.88 84.85 51.38C84.91 52.26 85.19 52.71 86.03 52.85C86.21 52.88 86.38 52.95 86.54 53.05C87.82 53.8 88.94 54.1 90.24 52.84C90.87 52.23 92.06 52.19 93.16 51.85H93.12ZM93.18 27.19C93.18 25.24 93.18 23.39 93.18 21.53C93.16 17.72 93.26 13.89 93.06 10.09C92.87 6.47 90.37 4.12 87.06 4.12C61.49 4.12 35.91 4.12 10.34 4.11C8.05998 4.11 6.30998 5.08 5.37998 7.08C4.74998 8.44 4.31998 10.01 4.27998 11.5C4.13998 16.36 4.22998 21.22 4.22998 26.08C4.22998 26.43 4.27998 26.78 4.30998 27.19H93.18ZM60.95 59.15C60.93 59.38 60.92 59.61 60.9 59.85C61.46 60.23 62.09 60.55 62.57 61.02C63.9 62.3 63.89 62.95 63.05 64.63C62.36 66 61.75 67.43 61.26 68.88C60.63 70.76 60.25 71.12 58.27 71.13C56.09 71.15 56.25 70.87 56.24 73.2C56.24 73.29 56.24 73.38 56.24 73.47C56.26 76.16 56.02 75.76 58.57 75.8C60.18 75.82 60.68 76.28 61.2 77.79C61.73 79.33 62.33 80.85 63.06 82.3C63.92 84.01 63.91 84.65 62.53 86.02C61 87.54 60.87 87.29 62.53 88.91C62.63 89.01 62.72 89.11 62.81 89.2C64.6 90.95 64.22 90.96 66.02 89.18C67.27 87.94 67.8 87.94 69.4 88.71C70.95 89.45 72.54 90.13 74.17 90.65C75.51 91.08 76.11 91.88 76.1 93.23C76.1 93.68 76.13 94.14 76.1 94.59C76.02 95.85 76.96 95.81 77.66 95.62C78.71 95.33 80.3 96.65 80.77 94.64C80.86 94.25 80.78 93.83 80.79 93.42C80.8 91.65 81.22 91.16 82.92 90.6C84.25 90.16 85.6 89.71 86.84 89.08C89.37 87.8 89.42 87.75 91.41 89.71C91.57 89.87 91.71 90.13 91.9 90.17C92.28 90.25 92.81 90.36 93.04 90.17C93.84 89.51 94.58 88.75 95.25 87.96C95.42 87.75 95.39 87.19 95.23 86.92C94.99 86.5 94.55 86.2 94.2 85.84C92.98 84.59 92.98 84.04 93.74 82.45C94.48 80.9 95.14 79.31 95.69 77.68C96.13 76.37 96.89 75.76 98.28 75.77C100.93 75.79 100.65 76.09 100.66 73.36C100.66 70.86 100.85 71.13 98.51 71.12C96.7 71.11 96.25 70.69 95.65 69.03C95.07 67.41 94.43 65.81 93.65 64.28C93.02 63.03 93.13 62.06 94.11 61.1C95.98 59.26 96.06 59.66 94.11 57.71C92.27 55.87 92.68 55.93 90.92 57.65C89.65 58.89 88.99 58.91 87.41 58.12C86 57.41 84.53 56.77 83.04 56.27C81 55.59 80.74 55.35 80.73 53.22C80.73 51.9133 80.0533 51.26 78.7 51.26C78.61 51.26 78.52 51.26 78.43 51.26C75.78 51.29 75.96 50.92 75.99 53.63C76.01 55.07 75.41 55.83 73.98 56.26C72.39 56.74 70.85 57.46 69.36 58.2C67.9 58.92 67.15 58.89 65.95 57.73C65.62 57.41 65.35 57 64.97 56.8C64.65 56.64 64.08 56.55 63.84 56.73C62.83 57.48 61.9 58.34 60.94 59.16L60.95 59.15Z" fill="#D9F19E"/>
<path d="M46.21 53.5999C44.5 51.6699 42.85 49.8699 41.27 47.9999C40.26 46.8099 40.57 45.1299 41.94 44.7699C42.63 44.5899 43.77 44.7899 44.24 45.2699C46.28 47.3299 48.18 49.5299 50.06 51.7299C51.07 52.9099 51.08 54.2699 50.06 55.4599C48.17 57.6599 46.24 59.8299 44.27 61.9599C43.41 62.8899 42.2 62.8999 41.36 62.1199C40.5 61.3199 40.41 60.1999 41.26 59.2099C42.85 57.3499 44.49 55.5399 46.21 53.5999Z" fill="#D9F19E"/>
<path d="M16.35 53.6001C18.04 55.5101 19.65 57.3001 21.22 59.1201C22.12 60.1601 22.06 61.3501 21.16 62.1501C20.26 62.9401 19.13 62.8301 18.14 61.8401C18.08 61.7801 18.01 61.7101 17.95 61.6401C16.2 59.6701 14.43 57.7201 12.7 55.7301C11.44 54.2801 11.44 52.9201 12.7 51.4701C14.46 49.4501 16.24 47.4501 18.04 45.4601C19.05 44.3501 20.22 44.2301 21.15 45.0601C22.08 45.8901 22.09 47.0701 21.12 48.1901C19.58 49.9701 18 51.7301 16.34 53.6001H16.35Z" fill="#D9F19E"/>
<path d="M29.22 64.2001C27.85 64.1901 26.96 63.0301 27.29 61.5601C28.25 57.3601 29.25 53.1701 30.25 48.9701C30.57 47.6001 30.88 46.2301 31.24 44.8701C31.63 43.4101 32.58 42.7701 33.8 43.0501C34.96 43.3201 35.58 44.4401 35.25 45.8501C33.98 51.2801 32.68 56.7101 31.38 62.1401C31.11 63.2801 30.57 64.1801 29.22 64.2001Z" fill="#D9F19E"/>
<path d="M31.08 75.8001C32.2 75.8101 33.13 76.7701 33.13 77.8801C33.13 79.0401 32.24 79.9001 31.05 79.8901C29.87 79.8901 29 79.0101 29.01 77.8401C29.02 76.7001 29.96 75.7801 31.08 75.7901V75.8001Z" fill="#D9F19E"/>
<path d="M70.6 22.6601C67.65 22.6601 64.7 22.6801 61.75 22.6601C57.57 22.6301 54.53 19.7401 54.52 15.8001C54.51 11.8801 57.53 8.88005 61.69 8.83005C66.54 8.77005 71.4 8.80005 76.25 8.83005C77.83 8.83005 79.44 8.78005 81 9.03005C84.61 9.62005 86.86 12.7801 86.55 16.5601C86.28 19.8801 83.43 22.5401 79.99 22.6501C78.59 22.6901 77.18 22.6701 75.77 22.6701C74.05 22.6701 72.32 22.6701 70.6 22.6701V22.6601ZM70.47 18.5401C73.42 18.5401 76.37 18.5501 79.32 18.5401C81.29 18.5301 82.46 17.4501 82.44 15.7401C82.42 14.0801 81.28 13.0201 79.37 13.0201C73.51 13.0001 67.65 13.0001 61.8 13.0201C59.82 13.0201 58.64 14.1301 58.66 15.8301C58.68 17.5201 59.87 18.5401 61.88 18.5501C64.74 18.5701 67.6 18.5501 70.46 18.5501L70.47 18.5401Z" fill="#D9F19E"/>
<path d="M19.19 22.6501C15.34 22.6301 12.3 19.5501 12.34 15.6801C12.38 11.9201 15.47 8.8401 19.22 8.8301C23.03 8.8201 26.14 11.9401 26.14 15.7801C26.14 19.6401 23.08 22.6701 19.19 22.6501ZM21.97 15.8001C21.98 14.2201 20.82 13.0301 19.26 13.0201C17.72 13.0101 16.48 14.2201 16.47 15.7501C16.45 17.2701 17.68 18.5201 19.21 18.5301C20.79 18.5401 21.96 17.3901 21.97 15.8101V15.8001Z" fill="#D9F19E"/>
<path d="M44.04 15.7298C44.06 19.6298 41.06 22.6498 37.17 22.6498C33.32 22.6498 30.23 19.5698 30.25 15.7398C30.27 11.9798 33.33 8.89977 37.09 8.82977C40.88 8.75977 44.02 11.8798 44.04 15.7298ZM39.91 15.7598C39.91 14.2098 38.71 13.0098 37.16 13.0098C35.61 13.0098 34.41 14.2298 34.41 15.7698C34.41 17.3198 35.63 18.5198 37.17 18.5098C38.73 18.5098 39.91 17.3098 39.91 15.7498V15.7598Z" fill="#D9F19E"/>
<path d="M78.5 60.8502C85.39 60.8802 91.1 66.6002 91.08 73.4702C91.07 80.3202 85.31 86.0702 78.46 86.0802C71.54 86.0902 65.8 80.3102 65.84 73.3602C65.88 66.4602 71.58 60.8202 78.49 60.8502H78.5ZM86.91 73.4402C86.91 68.7602 83.05 64.9502 78.37 65.0002C73.74 65.0502 69.98 68.8402 69.99 73.4602C69.99 78.1302 73.88 81.9802 78.53 81.9202C83.17 81.8602 86.92 78.0602 86.91 73.4502V73.4402Z" fill="#D9F19E"/>
</g>
<defs>
<clipPath id="clip0_1_3444">
<rect width="104.72" height="99.81" fill="white" transform="translate(0.0999756)"/>
</clipPath>
</defs>
</svg>
